<svg xmlns="http://www.w3.org/2000/svg" xmlns:xlink="http://www.w3.org/1999/xlink" viewBox="0 0 199 32"><g><defs><linearGradient id="idss2521779813_1g818678551" gradientTransform="rotate(78.63246210738862, 0.5, 0.5)"><stop offset="0" stop-color="rgb(25,43,175)" stop-opacity="1"></stop><stop offset="1" stop-color="rgb(0,100,235)" stop-opacity="1"></stop></linearGradient></defs><path d="M 16.345 25.356 C 3.893 29.835 4.587 19.495 4.587 12.951 C 4.587 6.406 4.731 1.341 0 0 C 4.976 0 9.013 4.041 9.013 9.023 L 9.013 17.675 C 9.013 22.86 11.046 25.446 15.113 25.446 C 15.55 25.446 15.956 25.416 16.345 25.356 Z" fill="url(#idss2521779813_1g818678551)"></path></g><g><defs><linearGradient id="idss2521779813_2g1196771932" gradientTransform="rotate(78.63874224899058, 0.5, 0.5)"><stop offset="0" stop-color="rgb(153,19,75)" stop-opacity="1"></stop><stop offset="1" stop-color="rgb(231,25,111)" stop-opacity="1"></stop></linearGradient></defs><path d="M 31.203 0 L 31.203 17.95 C 31.203 22.764 29.869 26.482 27.208 29.099 C 24.541 31.721 20.809 33.032 16 33.032 C 12.268 33.032 9.182 32.242 6.742 30.661 C 15.462 34.092 26.173 29.56 26.173 18.309 C 26.173 7.059 26.078 4.874 31.065 0 Z" fill="url(#idss2521779813_2g1196771932)"></path></g><g><defs><linearGradient id="idss2521779813_3g818678570" gradientTransform="rotate(59.79121281965118, 0.5, 0.5)"><stop offset="0" stop-color="rgb(25,43,175)" stop-opacity="1"></stop><stop offset="1" stop-color="rgb(0,100,235)" stop-opacity="1"></stop></linearGradient></defs><path d="M 16.345 25.356 C 13.086 27.638 8.421 28.398 5.006 27.518 C 2.865 26.967 1.19 25.279 0.622 23.141 C 0.203 21.584 0 19.854 0 17.956 L 0 0 C 4.976 0 9.013 4.041 9.013 9.023 L 9.013 17.675 C 9.013 22.86 11.046 25.446 15.113 25.446 C 15.55 25.446 15.956 25.416 16.345 25.356 Z" fill="url(#idss2521779813_3g818678570)"></path></g><g><defs><linearGradient id="idss2521779813_4g1196771877" gradientTransform="rotate(119.25938375686013, 0.5, 0.5)"><stop offset="0" stop-color="rgb(153,19,75)" stop-opacity="1"></stop><stop offset="1" stop-color="rgb(231,25,111)" stop-opacity="1"></stop></linearGradient></defs><path d="M 31.203 0 L 31.203 17.95 C 31.203 22.764 29.869 26.482 27.208 29.099 C 24.541 31.721 20.809 33.032 16 33.032 C 12.268 33.032 9.182 32.242 6.742 30.661 C 11.539 31.182 18.925 28.679 21.293 22.177 C 21.801 20.998 22.053 19.495 22.053 17.675 L 22.053 9.023 C 22.053 4.041 26.09 0 31.065 0 Z" fill="url(#idss2521779813_4g1196771877)"></path></g></svg>